<svg version="1.2" xmlns="http://www.w3.org/2000/svg" viewBox="0 0 512 445" width="512" height="445">
	<style>
		.s0 { fill: #b38d43 } 
		.s1 { fill: #bfbfbf } 
		.s2 { fill: #ffffff } 
		.s3 { fill: #ffcc66 } 
		.s4 { fill: #303030 } 
	</style>
	<g id="Layer 1">
		<g id="Carpeta 1">
			<path id="Forma 1" fill-rule="evenodd" class="s0" d="m-0.36 0.19v179.78h512.36v-132.02h-241.92v-47.76z"/>
			<path id="Forma 3" fill-rule="evenodd" class="s1" d="m467.49 74.59v62.6h-425.74v-62.6z"/>
			<path id="Forma 3 copy" fill-rule="evenodd" class="s2" d="m467.49 104.85v32.34h-425.74v-32.34z"/>
			<path id="Forma 2" fill-rule="evenodd" class="s3" d="m-0.36 137.06h512.35v307.54h-512.35z"/>
			<path class="s4" d="m336.39 164.32c-5.67 0-11.19 1.08-16.41 3.22-5.21 2.15-9.88 5.37-13.86 9.28-3.99 3.98-7.13 8.73-9.27 13.87-2.15 5.21-3.23 10.8-3.23 16.4q0 2.07 0.16 4.21 0.23 2.07 0.69 4.14 0.38 2.15 1 4.14 0.61 1.98 1.45 3.98 0.99 2.38 2.3 4.6 1.23 2.3 2.76 4.37 1.61 2.07 3.37 3.98 1.76 1.84 3.75 3.53 1.23 0.99 2.61 1.91 1.3 1 2.68 1.77 1.38 0.84 2.84 1.6 1.38 0.69 2.91 1.31 0.69 0.3 1.38 0.53 0.77 0.31 1.46 0.53 0.76 0.24 1.45 0.47 0.77 0.15 1.53 0.38v12.11q0 0.08 0 0.23 0 0.15 0 0.3 0 0.08 0 0.24 0 0.15 0 0.22 0 0.16 0 0.31 0 0.16 0 0.23 0 0.15 0 0.31 0 0.07 0 0.23c-0.15 2.83-0.84 5.59-1.99 8.12-1.15 2.53-2.76 4.83-4.75 6.82-1.99 1.99-4.37 3.53-6.89 4.6-2.61 1.07-5.37 1.69-8.21 1.76q-0.07 0-0.15 0 0 0-0.07 0-0.08 0-0.16 0-0.08 0-0.15 0 0 0-0.08 0-0.08 0-0.15 0-0.08 0-0.15 0-0.08 0-0.08 0h-34.64-52.8v-35.71c4.37-1.3 8.51-3.29 12.26-5.9 3.68-2.61 6.98-5.82 9.74-9.5 2.68-3.68 4.83-7.74 6.21-12.03 1.45-4.37 2.22-8.89 2.22-13.41 0-5.67-1.16-11.19-3.3-16.4-2.15-5.21-5.28-9.89-9.27-13.87-3.98-3.99-8.66-7.12-13.87-9.27-5.14-2.15-10.73-3.22-16.32-3.22-5.67 0-11.19 1.07-16.4 3.22-5.14 2.15-9.89 5.28-13.87 9.27-3.99 3.98-7.12 8.66-9.27 13.87-2.15 5.21-3.22 10.73-3.22 16.4 0 4.52 0.69 9.04 2.14 13.33 1.46 4.37 3.53 8.43 6.21 12.11 2.76 3.6 6.05 6.82 9.74 9.43q5.62 4.02 12.18 5.97v83.45q-6.56 2.07-12.18 5.98c-3.77 2.6-6.98 5.82-9.74 9.5-2.68 3.67-4.83 7.74-6.21 12.03-1.45 4.36-2.22 8.89-2.22 13.41 0 5.59 1.15 11.19 3.3 16.4 2.15 5.13 5.28 9.88 9.27 13.87 3.98 3.9 8.66 7.05 13.87 9.27 5.21 2.15 10.73 3.22 16.32 3.22 5.67 0 11.19-1.07 16.4-3.22 5.13-2.22 9.89-5.37 13.87-9.27 3.99-3.99 7.12-8.74 9.27-13.87 2.14-5.21 3.22-10.81 3.22-16.4 0-4.52-0.69-9.05-2.14-13.41-1.46-4.29-3.53-8.36-6.29-12.03-2.68-3.68-5.98-6.9-9.66-9.5-3.75-2.61-7.89-4.6-12.26-5.98v-22.91h87.9 8.58q0.54-0.08 1-0.08 0.53-0.07 0.99-0.15 0.46-0.08 1-0.16 0.46-0.07 0.92-0.15 1.3-0.3 2.53-0.61 1.3-0.31 2.53-0.69 1.22-0.38 2.45-0.84 1.15-0.47 2.37-1c3.22-1.53 6.29-3.37 9.05-5.59 2.76-2.23 5.28-4.75 7.43-7.59 2.14-2.84 3.98-5.9 5.36-9.2 1.38-3.22 2.38-6.66 2.99-10.19v-14.02-11.26c4.14-1.46 7.97-3.6 11.49-6.21 3.45-2.69 6.52-5.82 9.05-9.42q3.79-5.41 5.74-11.73c1.38-4.14 2.07-8.51 2.07-12.87 0-5.6-1.15-11.19-3.29-16.4-2.15-5.14-5.29-9.89-9.28-13.87-3.98-3.91-8.65-7.13-13.86-9.28-5.22-2.14-10.73-3.22-16.32-3.22zm-0.16 19.39c3.14 0 6.13 0.54 9.04 1.76 2.84 1.16 5.45 2.92 7.59 5.06 2.22 2.23 3.91 4.83 5.13 7.66 1.16 2.84 1.77 5.91 1.77 8.97q0 2.69-0.61 5.29-0.62 2.6-1.77 4.98-1.15 2.38-2.84 4.45-1.68 2.14-3.75 3.75-1.53 1.23-3.3 2.14-1.68 0.92-3.52 1.61-1.91 0.61-3.83 0.93-1.92 0.37-3.91 0.37-0.3 0-0.69 0-0.3-0.07-0.69-0.07-0.3 0-0.69-0.08-0.3 0-0.69 0-0.92-0.15-1.91-0.38-1-0.16-1.92-0.46-0.99-0.23-1.92-0.61-0.91-0.39-1.76-0.84-0.91-0.39-1.76-0.92-0.84-0.46-1.61-1.08-0.77-0.54-1.53-1.15-0.77-0.61-1.46-1.3-1.6-1.69-2.91-3.6-1.23-1.91-2.14-4.06-0.85-2.14-1.31-4.37-0.46-2.3-0.46-4.6c0-3.06 0.61-6.13 1.77-8.97 1.22-2.83 2.91-5.43 5.13-7.66 2.14-2.14 4.75-3.9 7.59-5.06 2.83-1.22 5.9-1.76 8.96-1.76zm-133.03 0.31c3.15 0 6.21 0.61 9.05 1.84 2.83 1.15 5.44 2.91 7.58 5.06 2.22 2.14 3.91 4.75 5.14 7.58 1.15 2.92 1.76 5.98 1.76 9.05q0 2.99-0.77 5.82-0.69 2.91-2.14 5.52-1.46 2.6-3.53 4.74-2.07 2.23-4.6 3.76-1.38 0.92-2.83 1.61-1.53 0.62-3.14 1.07-1.54 0.46-3.22 0.69-1.61 0.24-3.3 0.24-1.61 0-3.21-0.24-1.61-0.23-3.15-0.61-1.61-0.46-3.06-1.15-1.53-0.61-2.91-1.45-2.53-1.61-4.6-3.76-2.07-2.23-3.53-4.82-1.46-2.61-2.22-5.52-0.77-2.91-0.77-5.9c0-3.07 0.62-6.13 1.77-9.05 1.22-2.83 2.91-5.44 5.13-7.58 2.15-2.15 4.76-3.91 7.59-5.06 2.84-1.23 5.9-1.84 8.96-1.84zm0 165.29q0.69 0 1.38 0 0.69 0.07 1.38 0.15 0.69 0.07 1.38 0.23 0.69 0.08 1.38 0.23c2.53 0.62 4.98 1.68 7.13 3.06 2.22 1.46 4.21 3.23 5.82 5.3 1.61 1.99 2.83 4.36 3.76 6.81 0.84 2.46 1.3 5.06 1.3 7.66 0 3.15-0.61 6.14-1.84 9.05-1.15 2.83-2.91 5.44-5.06 7.59-2.22 2.22-4.75 3.9-7.66 5.13-2.84 1.15-5.9 1.76-8.97 1.76-3.06 0-6.12-0.61-8.96-1.76-2.83-1.23-5.44-2.91-7.66-5.13-2.15-2.15-3.92-4.76-5.06-7.59-1.23-2.91-1.84-5.9-1.84-9.05 0.07-2.6 0.46-5.2 1.3-7.66 0.92-2.45 2.15-4.82 3.75-6.81 1.61-2.07 3.61-3.84 5.83-5.3 2.22-1.38 4.6-2.44 7.21-3.06q0.61-0.15 1.29-0.23 0.69-0.16 1.38-0.23 0.69-0.08 1.38-0.15 0.69 0 1.38 0z"/>
		</g>
	</g>
</svg>